<?xml version="1.0" encoding="UTF-8" standalone="no"?><!DOCTYPE svg PUBLIC "-//W3C//DTD SVG 1.1//EN" "http://www.w3.org/Graphics/SVG/1.1/DTD/svg11.dtd"><svg width="100%" height="100%" viewBox="0 0 2788 1775" version="1.1" xmlns="http://www.w3.org/2000/svg" xmlns:xlink="http://www.w3.org/1999/xlink" xml:space="preserve" xmlns:serif="http://www.serif.com/" style="fill-rule:evenodd;clip-rule:evenodd;stroke-linecap:round;stroke-linejoin:round;stroke-miterlimit:10;"><rect id="Mesa-de-trabajo1" serif:id="Mesa de trabajo1" x="0" y="0" width="2787.59" height="1774.04" style="fill:none;"/><path d="M2316.77,272.866c-0,-0 -74.703,-126.378 -329.936,-208.797c-255.233,-82.42 -616.294,153.85 -821.726,258.249c-205.431,104.398 -398.412,-148.356 -666.096,-49.452c-267.683,98.904 -267.683,412.099 -93.378,511.003c174.306,98.904 267.684,137.367 87.153,302.207c-180.531,164.84 -261.458,406.605 -37.351,478.035c224.107,71.431 852.852,-131.872 1014.71,-87.914c161.855,43.957 560.268,214.292 809.276,153.85c249.007,-60.441 529.141,-401.11 305.034,-598.918c-224.107,-197.808 -174.305,-626.391 -267.683,-758.263" style="fill:#f6f6f6;fill-rule:nonzero;"/><path d="M2186.04,673.976c-0,0 102.722,-120.256 153.04,-177.346c50.318,-57.095 120.868,-137.679 141.617,-137.679c20.755,-0 66.404,-0 53.954,47.616c-12.451,47.623 -37.352,91.58 -37.352,124.548c0,32.968 -236.557,304.036 -236.557,304.036l-74.702,-161.175Z" style="fill:#b57753;fill-rule:nonzero;"/><path d="M2161.46,719.076c0,0 86.412,-105.926 177.618,-222.446c91.211,-116.519 201.615,-182.197 201.615,-182.197" style="fill:#fff;fill-rule:nonzero;stroke:#333;stroke-width:5.56px;"/><path d="M1497.12,399.243c-0,-0 -498.016,128.207 -556.116,131.872c-58.106,3.665 -33.199,84.249 8.298,95.239c41.504,10.989 784.375,-102.564 854.932,-124.542c70.55,-21.979 8.298,-91.58 -58.106,-106.234c-66.398,-14.649 -249.008,3.665 -249.008,3.665Z" style="fill:#333;fill-rule:nonzero;stroke:#333;stroke-width:5.56px;"/><path d="M2076.35,391.945c0,0 68.216,-48.171 71.627,-102.36c3.412,-54.188 -81.861,-75.266 -139.843,-78.277c-57.981,-3.011 -150.077,18.067 -289.926,-6.022c-139.849,-24.083 -242.179,-81.282 -358.148,-39.133c-115.963,42.144 -95.501,177.621 -13.639,192.676c81.861,15.055 88.684,15.055 262.641,18.067c173.95,3.011 371.781,54.188 467.288,15.049Z" style="fill:#67ad5b;fill-rule:nonzero;stroke:#333;stroke-width:5.56px;"/><path d="M1993.27,311.377c24.347,-0.385 46.042,-2.209 64.045,-6.182c83.231,-18.363 62.42,11.022 16.646,18.369c-45.78,7.346 -134.041,5.159 -134.041,5.159" style="fill:none;fill-rule:nonzero;stroke:#333;stroke-width:5.56px;"/><path d="M1106.53,374.82c-0,0 -37.513,57.2 -122.792,102.36c-85.273,45.161 -211.47,72.255 -126.204,96.338c85.273,24.083 545.745,-45.16 668.537,-87.304c122.792,-42.15 208.058,-120.427 317.211,-168.599c109.153,-48.166 160.317,-75.26 78.45,-75.26c-81.861,-0 -306.977,21.072 -324.034,21.072c-17.057,-0 -416.123,90.321 -491.168,111.393Z" style="fill:#d28537;fill-rule:nonzero;stroke:#333;stroke-width:5.56px;"/><path d="M1089.48,474.169c-0,0 92.992,50.348 135.809,50.348c53.636,-0 214.514,-33.413 312.305,-75.178c97.792,-41.765 145.11,-50.117 160.884,-77.964c15.769,-27.841 -12.618,-58.469 -12.618,-58.469l-78.867,-8.357" style="fill:#ab6d2f;fill-rule:nonzero;"/><path d="M1089.48,248.373l-0,225.798c-0,-0 105.735,24.083 221.704,-9.033c115.975,-33.117 269.458,-114.405 279.698,-120.421c10.234,-6.028 44.336,-45.161 44.336,-45.161c-0,0 -173.951,-180.637 -214.888,-180.637c-40.924,-0 -252.394,60.21 -330.85,129.454Z" style="fill:#d28537;fill-rule:nonzero;stroke:#333;stroke-width:5.56px;"/><path d="M1437.58,154.688c-1.942,-0.489 -3.878,-0.786 -5.814,-0.967c-17.456,-5.605 -47.362,2.115 -96.068,14.396c-66.248,16.709 -113.566,69.611 -97.791,66.826c15.774,-2.781 94.635,-52.903 94.635,-11.138c0,41.765 -44.168,64.04 -44.168,64.04c-0.342,0.462 -0.622,0.901 -0.927,1.346c-51.657,27.787 -109.476,47.568 -109.476,76.618c-0,38.979 173.496,-30.627 223.97,-77.964c42.063,-39.446 81.936,-121.426 35.639,-133.157" style="fill:#ab6d2f;fill-rule:nonzero;"/><path d="M1389.64,326.651c-101.533,57.749 -226.884,78.606 -300.16,86.118l-0,61.402c-0,0 105.741,24.084 221.704,-9.033c115.969,-33.116 269.464,-114.404 279.698,-120.421c10.234,-6.027 44.342,-45.16 44.342,-45.16c-0,-0 -36.162,-37.54 -79.371,-78.382c-37.881,27.138 -93.136,63.909 -166.213,105.476" style="fill:#ab6d2f;fill-rule:nonzero;"/><path d="M1389.64,326.651c-101.533,57.749 -226.884,78.606 -300.16,86.118l-0,61.402c-0,0 105.741,24.084 221.704,-9.033c115.969,-33.116 269.464,-114.404 279.698,-120.421c10.234,-6.027 44.342,-45.16 44.342,-45.16c-0,-0 -36.162,-37.54 -79.371,-78.382c-37.881,27.138 -93.136,63.909 -166.213,105.476Z" style="fill:none;fill-rule:nonzero;stroke:#333;stroke-width:5.56px;"/><path d="M2152.48,547.328c-0,-0 68.216,-48.172 71.627,-102.36c3.418,-54.189 -81.861,-75.266 -139.843,-78.277c-57.981,-3.011 -150.077,18.066 -289.926,-6.022c-139.843,-24.083 -242.173,-81.283 -358.148,-39.133c-115.963,42.144 -95.495,177.62 -13.639,192.676c81.861,15.055 88.684,15.055 262.641,18.066c173.957,3.011 371.781,54.188 467.288,15.05Z" style="fill:#2f3d4e;fill-rule:nonzero;stroke:#333;stroke-width:5.56px;"/><path d="M2208.21,406.487c-15.601,-15.193 -40.794,-25.402 -67.313,-31.732l-89.525,187.237c30.945,0.104 58.76,-2.215 82.117,-8.374l74.721,-147.131Z" style="fill:#ddd;fill-rule:nonzero;stroke:#333;stroke-width:5.56px;"/><path d="M1542.37,307.079l-163.965,182.175c11.255,12.594 26.226,21.666 44.149,24.957c1.133,0.209 2.191,0.407 3.299,0.604l189.987,-196.483c-24.938,-5.555 -49.26,-9.753 -73.47,-11.253Z" style="fill:#ddd;fill-rule:nonzero;stroke:#333;stroke-width:5.56px;"/><path d="M1775.06,357.083c-22.435,-4.423 -43.944,-9.555 -64.711,-14.841l-165.104,186.879c19.796,0.813 44.037,1.401 76.096,2.016l153.719,-174.054Z" style="fill:#ddd;fill-rule:nonzero;stroke:#333;stroke-width:5.56px;"/><path d="M1853.85,545.256l133.468,-174.477c-23.195,1.231 -49.08,2.022 -77.784,1.269l-131.924,165.472c25.504,2.231 51.027,4.929 76.24,7.736Z" style="fill:#ddd;fill-rule:nonzero;stroke:#333;stroke-width:5.56px;"/><path d="M2069.4,466.759c24.341,-0.384 46.042,-2.209 64.039,-6.181c83.231,-18.364 62.426,11.022 16.646,18.368c-45.78,7.347 -134.035,5.16 -134.035,5.16" style="fill:none;fill-rule:nonzero;stroke:#333;stroke-width:5.56px;"/><path d="M2005.48,465.222c11.647,0.621 22.99,1.093 33.946,1.362" style="fill:none;fill-rule:nonzero;stroke:#333;stroke-width:5.56px;"/><path d="M1451.82,443.571c-12.494,-7.655 -18.209,-16.836 1.189,-25.232c44.112,-19.094 160.23,25.71 297.564,29.386c74.883,2 157.187,11.099 230.046,15.989" style="fill:none;fill-rule:nonzero;stroke:#333;stroke-width:5.56px;"/><path d="M1494.63,460.58c0,0 -11.871,-3.208 -24.515,-8.22" style="fill:none;fill-rule:nonzero;stroke:#333;stroke-width:5.56px;"/><path d="M1073.62,542.463c-10.235,-24.083 -40.931,-9.033 -40.931,-9.033l-23.874,0c-47.753,-12.039 -102.33,-60.21 -122.792,-69.243c-20.468,-9.034 -37.525,27.099 -105.741,75.265c-68.216,48.172 -225.116,162.576 -242.173,174.615c-13.608,9.61 -251.037,51.831 -346.32,68.48c3.766,11.819 13.142,27.078 35.565,41.468c45.649,29.304 49.801,76.926 33.199,128.207c-4.464,13.781 -7.085,26.183 -8.597,37.034l347.553,-154.768c-0,0 156.899,15.061 187.596,-3.005c30.696,-18.061 112.564,-132.466 122.792,-150.532c10.234,-18.061 126.203,-81.283 139.843,-96.338c13.645,-15.055 34.114,-18.066 23.88,-42.15" style="fill:#ffcf97;fill-rule:nonzero;"/><path d="M868.28,602.114l-81.276,-29.04c-0,0 34.506,-17.929 53.43,-34.633c18.931,-16.709 34.706,-44.55 34.706,-44.55c-0,-0 24.477,24.33 65.862,37.226l41.392,12.89l-114.114,58.107Z" style="fill:#ec9f64;fill-rule:nonzero;"/><path d="M1058.1,563.498c0,0 -129.335,64.04 -167.19,86.316c-37.855,22.275 -113.566,108.591 -138.803,119.729c-25.237,11.137 -145.11,22.275 -157.728,19.489c-12.619,-2.786 -135.647,52.903 -154.572,61.255c-16.49,7.28 -100.008,88.508 -121.242,109.31l280.937,-125.108c0,0 156.9,15.061 187.597,-3.011c30.696,-18.061 112.564,-132.459 122.792,-150.526c10.234,-18.066 126.203,-81.282 139.842,-96.338c8.137,-8.973 18.645,-13.687 23.681,-21.116l-15.314,0Z" style="fill:#ec9f64;fill-rule:nonzero;"/><path d="M140.059,782.158c0,-0 368.376,-63.222 385.433,-75.266c17.051,-12.044 173.951,-126.443 242.167,-174.615c68.222,-48.172 85.279,-84.299 105.741,-75.266c20.462,9.033 75.038,57.199 122.792,69.244l23.874,-0c-0,-0 30.696,-15.056 40.93,9.033c10.234,24.083 -10.234,27.094 -23.873,42.15c-13.64,15.049 -129.615,78.271 -139.849,96.337c-10.228,18.067 -92.09,132.466 -122.786,150.532c-30.703,18.061 -187.603,3.011 -187.603,3.011l-378.61,168.588" style="fill:none;fill-rule:nonzero;stroke:#333;stroke-width:5.56px;"/><path d="M794.322,638.033c-7.097,3.148 -12.967,5.511 -16.995,6.78" style="fill:#fff;fill-rule:nonzero;stroke:#333;stroke-width:5.56px;"/><path d="M1020.06,526.253c0,0 -89.86,28.034 -97.598,39.99c-5.155,7.962 -55.753,36.353 -97.008,56.969" style="fill:#fff;fill-rule:nonzero;stroke:#333;stroke-width:5.56px;"/><path d="M934.073,561.118c-0,-0 -19.348,-10.248 -30.965,-17.078c-11.61,-6.835 -21.284,-25.621 -21.284,-25.621c0,-0 -7.737,34.16 -19.347,42.699c-11.617,8.544 -36.773,15.374 -36.773,15.374l-38.702,-3.418c29.028,10.253 81.276,29.04 81.276,29.04l65.795,-40.996Z" style="fill:#333;fill-rule:nonzero;stroke:#333;stroke-width:5.56px;"/><path d="M907.506,601.521l44.342,824.908l1306.37,-54.188c0,-0 -6.823,3.005 -6.823,-54.2c0,-57.199 -47.753,-779.742 -47.753,-779.742l-1296.14,63.222Z" style="fill:#ffca73;fill-rule:nonzero;"/><path d="M1546.01,1269.51c0,-0 84.981,-9.912 99.417,-22.644c14.424,-12.736 67.338,-19.819 67.338,-19.819l17.642,-43.869c0,-0 -102.622,31.133 -137.894,49.534c-35.278,18.396 -46.503,36.798 -46.503,36.798Z" style="fill:#333;fill-rule:nonzero;stroke:#333;stroke-width:5.56px;"/><path d="M1182.07,1129.22c0,-0 -31.618,43.111 -59.177,59.325c-27.559,16.221 -101.047,27.029 -101.047,27.029l45.936,81.084l88.796,116.218l-48.992,8.11l-137.795,-56.76l-21.433,-194.599l233.712,-40.407Z" style="fill:#333;fill-rule:nonzero;stroke:#333;stroke-width:5.56px;"/><path d="M2021.58,1382.05c20.823,-13.396 40.121,-29.077 44.111,-41.391c8.299,-25.638 53.948,-109.893 70.551,-139.196c12.369,-21.842 73.133,-76.217 103.294,-102.509c-0.709,-11.511 -1.425,-23.248 -2.16,-35.187c-89.562,62.836 -224.754,160.273 -254.691,196.307c-28.487,34.287 -95.756,91.399 -142.315,129.493l181.21,-7.517Z" style="fill:#cc8b59;fill-rule:nonzero;"/><path d="M1992.53,1382.05c20.823,-13.396 40.121,-29.077 44.111,-41.391c8.299,-25.638 53.954,-109.893 70.551,-139.196c12.369,-21.842 73.133,-76.217 103.294,-102.509c-0.703,-11.511 -1.425,-23.248 -2.16,-35.187c-89.555,62.836 -224.754,160.273 -254.685,196.307c-28.487,34.287 -95.762,91.399 -142.321,129.493l181.21,-7.517Z" style="fill:#333;fill-rule:nonzero;stroke:#333;stroke-width:5.56px;"/><path d="M2219.97,856.996c1.488,0.142 2.988,0.285 4.407,0.423c-2.048,-32.078 -4.065,-63.458 -5.994,-93.289c-139.868,9.209 -674.594,44.677 -908.014,63.694c-161.619,13.171 -300.833,22.391 -389.206,27.672l3.437,63.908l149.211,146.521c0,-0 70.557,25.643 203.359,-3.66c132.802,-29.308 240.71,-54.946 369.36,-62.276c128.656,-7.325 452.366,-0 452.366,-0l128.656,-29.303l-7.582,-113.69Z" style="fill:#cc8b59;fill-rule:nonzero;"/><path d="M1310.36,827.827c-161.619,13.165 -300.833,22.385 -389.206,27.665l2.191,40.699c23.227,3.237 71.515,8.561 138.007,8.561c95.457,-0 174.305,3.665 199.206,-3.665c24.901,-7.324 83.007,-7.324 203.359,-18.314c120.351,-10.989 174.305,-10.989 215.809,-7.324c41.497,3.659 186.756,76.925 207.504,76.925c20.749,0 116.206,-109.893 116.206,-109.893l218.486,-23.276c-1.208,-18.775 -2.397,-37.226 -3.549,-55.078c-139.861,9.215 -674.593,44.683 -908.013,63.7" style="fill:#333;fill-rule:nonzero;"/><path d="M1310.36,827.827c-161.619,13.165 -300.833,22.385 -389.206,27.665l2.191,40.699c23.227,3.237 71.515,8.561 138.007,8.561c95.457,-0 174.305,3.665 199.206,-3.665c24.901,-7.324 83.007,-7.324 203.359,-18.314c120.351,-10.989 174.305,-10.989 215.809,-7.324c41.497,3.659 186.756,76.925 207.504,76.925c20.749,0 116.206,-109.893 116.206,-109.893l218.486,-23.276c-1.208,-18.775 -2.397,-37.226 -3.549,-55.078c-139.861,9.215 -674.593,44.683 -908.013,63.7Z" style="fill:none;fill-rule:nonzero;stroke:#333;stroke-width:5.56px;"/><path d="M907.506,601.521l44.342,824.908l1306.37,-54.188c0,-0 -6.823,3.005 -6.823,-54.2c0,-57.199 -47.753,-779.742 -47.753,-779.742l-1296.14,63.222Z" style="fill:none;fill-rule:nonzero;stroke:#333;stroke-width:5.56px;"/><path d="M2016.05,484.107c0,-0 0.996,3.511 7.701,7.017c6.698,3.516 19.118,7.022 41.945,7.022c45.65,-0 102.747,-18.171 120.352,10.989c17.599,29.16 -33.199,62.277 -49.801,62.277c-16.603,-0 -382.956,-6.132 -435.764,-25.644c-52.815,-19.517 -265.611,-3.665 -249.008,-25.644c16.602,-21.978 178.458,-54.946 236.557,-58.606l328.018,22.589Z" style="fill:#4caf50;fill-rule:nonzero;stroke:#333;stroke-width:5.56px;"/><path d="M907.506,601.521l-68.216,279.986c0,-0 395.668,-0 644.657,-18.061c248.995,-18.067 440.003,-33.117 528.681,-39.139c88.69,-6.022 156.906,-18.066 156.906,-18.066l112.564,-6.022l-78.456,-261.92l-1296.14,63.222Z" style="fill:#ffca73;fill-rule:nonzero;stroke:#333;stroke-width:5.56px;"/><path d="M1939.65,820.406c-0,-0 64.325,-3.44 83.822,-6.885c19.491,-3.44 42.885,-56.777 56.531,-82.585c13.639,-25.809 31.188,-173.78 31.188,-173.78l-181.29,240.886c-0,0 -9.749,24.083 9.749,22.364Z" style="fill:#333;fill-rule:nonzero;stroke:#333;stroke-width:5.56px;"/><path d="M1466.89,526.253c0,0 -139.849,6.022 -204.653,15.056c-64.804,9.027 -102.193,21.214 -102.193,36.27c-0,15.05 -88.317,302.448 -88.317,302.448c0,-0 60.901,25.561 115.471,34.6c38.709,6.407 99.087,0.599 130.922,-3.319c12.563,-1.544 22.411,-10.258 24.104,-21.358l22.343,-146.932l494.579,219.775c0,0 34.102,-18.066 37.513,-36.127c2.808,-14.874 136.786,-285.393 181.483,-373.593c7.383,-14.561 -4.096,-31.166 -22.149,-31.935c-94.866,-4.044 -348.107,5.115 -408.329,5.115l-180.774,0Z" style="fill:#57a4b0;fill-rule:nonzero;"/><path d="M2078.15,553.075c2.864,-5.649 2.864,-11.588 0.772,-16.808c-17.063,-5.001 -38.359,-10.6 -59.892,-16.006c-85.559,-0.951 -226.33,3.06 -311.708,5l-17.194,17.94c-0,-0 26.805,34.171 -59.563,44.682c-86.362,10.517 -157.84,-21.028 -154.864,7.891c2.975,28.913 -5.952,165.603 -26.806,152.46c-20.848,-13.149 -2.976,-184.005 -26.799,-157.719c-23.83,26.287 -90.789,204.297 -101.253,220.809c-10.477,16.5 -131.041,-176.12 -142.956,-126.18c-11.909,49.941 74.454,128.806 56.587,176.121c-7.613,20.149 -20.076,39.342 -29.812,55.353c37.65,2.797 86.101,-1.945 113.46,-5.308c12.569,-1.544 22.417,-10.258 24.104,-21.357l22.343,-146.933l311.776,138.542c28.543,-16.654 59.575,-31.089 94.194,-33.44c40.544,-2.753 101.483,8.907 152.069,20.643c41.827,-88.002 122.729,-250.952 155.542,-315.69" style="fill:#3f8994;fill-rule:nonzero;"/><path d="M1466.89,526.253c0,0 -139.849,6.022 -204.653,15.056c-64.804,9.027 -102.193,21.214 -102.193,36.27c-0,15.05 -88.317,302.448 -88.317,302.448c0,-0 60.901,25.561 115.471,34.6c38.709,6.407 99.087,0.599 130.922,-3.319c12.563,-1.544 22.411,-10.258 24.104,-21.358l22.343,-146.932l494.579,219.775c0,0 34.102,-18.066 37.513,-36.127c2.808,-14.874 136.786,-285.393 181.483,-373.593c7.383,-14.561 -4.096,-31.166 -22.149,-31.935c-94.866,-4.044 -348.107,5.115 -408.329,5.115l-180.774,0Z" style="fill:none;fill-rule:nonzero;stroke:#333;stroke-width:5.56px;"/><path d="M1364.57,743.019c-0,-0 37.519,-63.222 44.342,-96.338" style="fill:none;fill-rule:nonzero;stroke:#333;stroke-width:5.56px;"/><path d="M1180.67,575.072c0,0 6.225,52.199 21.788,68.683" style="fill:none;fill-rule:nonzero;stroke:#333;stroke-width:5.56px;"/><path d="M1262.21,666.338c4.681,6.324 8.765,11.808 11.84,15.879" style="fill:none;fill-rule:nonzero;stroke:#333;stroke-width:5.56px;"/><path d="M1199.35,580.567c-0,-0 25.841,35.479 48.276,65.991" style="fill:none;fill-rule:nonzero;stroke:#333;stroke-width:5.56px;"/><path d="M1442.9,650.404c3.101,-5.429 5.516,-10.742 6.935,-15.77" style="fill:none;fill-rule:nonzero;stroke:#333;stroke-width:5.56px;"/><path d="M1378.21,721.944c0,0 30.218,-25.187 51.788,-52.699" style="fill:none;fill-rule:nonzero;stroke:#333;stroke-width:5.56px;"/><path d="M1222.56,1443.11c13.646,3.011 34.108,-3.011 30.703,-27.094c-3.411,-24.083 -23.88,-27.094 -40.937,-33.116c-17.051,-6.022 -242.172,-189.671 -242.172,-189.671c-0,0 129.614,-18.066 150.083,-24.083c20.468,-6.022 68.216,-27.094 68.216,-60.21c-0,-33.122 -78.45,12.039 -133.027,12.039c-54.57,-0 -119.374,-30.1 -143.254,-24.084c-23.874,6.023 -191.008,69.244 -191.008,69.244c0,0 -27.291,3.011 -57.987,3.011c-26.75,0 -413.559,-114.316 -512.527,-143.702c-2.521,14.424 -1.04,33.562 16.273,50.749c33.199,32.968 74.702,54.947 -0,135.537c-47.007,50.705 -57.851,85.453 -51.165,110.64c124.665,9.435 532.976,40.837 547.419,48.491c17.057,9.028 122.792,57.199 150.077,78.271c27.291,21.078 81.861,63.227 112.564,69.244c30.696,6.022 85.266,21.072 102.329,21.072l68.216,0c0,0 44.342,0 54.57,-6.022c10.235,-6.017 23.874,-24.078 23.874,-24.078l34.114,6.017c0,-0 27.285,-9.028 27.285,-27.094c0,-18.061 -81.861,-48.172 -102.324,-63.222c-20.468,-15.05 -133.026,-69.249 -133.026,-69.249c0,-0 68.216,24.089 78.45,27.1c10.234,3.011 129.615,57.199 143.254,60.21" style="fill:#ffcf97;fill-rule:nonzero;"/><path d="M1150.93,1533.42c10.234,-6.022 23.873,-24.083 23.873,-24.083l34.108,6.022c0,-0 27.291,-9.033 27.291,-27.1c0,-18.061 -81.861,-48.166 -102.323,-63.222c-15.439,-11.346 -83.2,-44.935 -115.621,-60.781c-17.287,15.758 -42.182,28.978 -42.182,28.978c0,0 12.619,30.633 0,47.337c-12.612,16.704 -56.78,5.566 -97.785,-8.358c-41.012,-13.917 -135.647,-80.744 -211.358,-83.529c-75.711,-2.786 -195.583,-30.628 -271.294,-30.628c-41.161,0 -113.99,6.583 -171.915,12.594c168.958,13.138 428.001,34.133 439.449,40.199c17.057,9.033 122.792,57.2 150.077,78.272c27.291,21.077 81.861,63.227 112.564,69.249c30.696,6.016 85.266,21.072 102.324,21.072l68.215,-0c0,-0 44.342,-0 54.577,-6.022" style="fill:#ec9f64;fill-rule:nonzero;"/><path d="M1182.07,1129.22c-9.829,5.176 -20.767,10.692 -32.483,16.203c-47.318,22.281 -217.664,44.557 -217.664,44.557c0,-0 66.249,52.902 75.711,64.04c9.462,11.132 34.699,69.606 25.231,91.882c-2.347,5.527 -7.035,11.231 -12.743,16.67c20.991,7.369 52.497,18.353 59.189,20.32c10.234,3.011 129.608,57.199 143.254,60.21c13.646,3.011 34.108,-3.011 30.703,-27.094c-3.412,-24.083 -23.88,-27.094 -40.937,-33.116c-17.051,-6.022 -242.173,-189.671 -242.173,-189.671c0,0 129.615,-18.066 150.077,-24.083c15.906,-4.676 48.189,-18.478 61.835,-39.918" style="fill:#ec9f64;fill-rule:nonzero;"/><path d="M129.827,1023c0,0 504.808,150.532 535.504,150.532c30.703,0 57.988,-3.011 57.988,-3.011c0,-0 167.134,-63.222 191.008,-69.244c23.88,-6.022 88.684,24.083 143.26,24.083c54.57,0 133.027,-45.16 133.027,-12.044c-0,33.122 -47.754,54.194 -68.222,60.216c-20.463,6.017 -150.077,24.083 -150.077,24.083c-0,0 225.121,183.648 242.172,189.67c17.057,6.023 37.519,9.028 40.931,33.117c3.411,24.083 -17.051,30.105 -30.703,27.094c-13.639,-3.011 -133.02,-57.2 -143.248,-60.211c-10.24,-3.011 -78.456,-27.099 -78.456,-27.099c0,-0 112.558,54.194 133.026,69.249c20.462,15.05 102.33,45.161 102.33,63.222c0,18.066 -27.291,27.094 -27.291,27.094l-34.114,-6.017c-0,0 -13.64,18.061 -23.868,24.078c-10.234,6.022 -54.576,6.022 -54.576,6.022l-68.216,-0c-17.057,-0 -71.633,-15.05 -102.33,-21.072c-30.696,-6.022 -85.272,-48.166 -112.557,-69.244c-27.285,-21.072 -133.027,-69.244 -150.084,-78.277c-17.05,-9.033 -583.257,-51.183 -583.257,-51.183" style="fill:none;fill-rule:nonzero;stroke:#333;stroke-width:5.56px;"/><path d="M992.781,1453.52c-0,0 68.215,21.078 98.918,36.128c30.69,15.05 85.266,24.088 85.266,24.088" style="fill:none;fill-rule:nonzero;stroke:#333;stroke-width:5.56px;"/><path d="M930.918,1483.5c32.221,8.736 77.167,21.55 85.733,27.226c13.652,9.033 81.868,33.111 81.868,33.111" style="fill:none;fill-rule:nonzero;stroke:#333;stroke-width:5.56px;"/><path d="M897.275,1474.6c-0,-0 5.129,1.313 13.284,3.461" style="fill:none;fill-rule:nonzero;stroke:#333;stroke-width:5.56px;"/><path d="M2613.51,721.596c-41.503,-29.303 -24.901,-146.527 -58.106,-179.495c-29.507,-29.303 -95.04,-3.637 -109.252,2.435c-107.353,100.563 -236.75,224.968 -280.028,279.771c-78.45,99.349 -242.173,228.804 -242.173,228.804c0,-0 -177.368,24.083 -197.83,24.083c-20.462,-0 -78.444,24.088 -88.684,45.16c-10.228,21.078 -75.039,78.277 -105.735,87.31c-30.697,9.028 -54.577,42.15 -6.823,54.189c47.753,12.039 92.095,-15.05 115.969,-33.117c23.88,-18.06 71.633,-24.083 71.633,-24.083c0,0 -78.456,96.338 -109.146,129.455c-30.703,33.116 -71.633,72.254 -64.817,90.321c6.829,18.061 17.063,30.1 47.754,30.1c30.702,-0 64.81,-30.1 64.81,-30.1c0,-0 40.931,27.094 68.216,21.072c27.285,-6.022 51.165,-15.05 51.165,-15.05c-0,0 34.108,12.039 47.753,12.039c13.64,-0 37.513,-21.072 37.513,-21.072l40.937,-0c27.285,-0 85.273,-45.161 109.147,-66.238c23.88,-21.072 57.981,-72.25 68.222,-102.36c10.228,-30.106 13.639,-60.211 37.513,-81.288c23.88,-21.067 98.918,-72.25 98.918,-72.25l501.402,-331.169l-1.133,-3.994c-36.504,-13.528 -77.105,-30.314 -97.225,-44.523" style="fill:#d39870;fill-rule:nonzero;"/><path d="M2710.74,766.119c-36.505,-13.528 -77.106,-30.314 -97.225,-44.523c-13.017,-9.188 -20.32,-27.029 -25.231,-48.205c-75.568,64.265 -278.092,235.408 -381.487,311.948c-128.65,95.239 -269.756,142.862 -315.405,139.197c-45.656,-3.665 -211.657,21.978 -240.71,36.633c-29.053,14.648 -85.59,77.156 -125.799,102.684c47.754,12.039 92.096,-15.05 115.969,-33.117c23.88,-18.06 71.634,-24.083 71.634,-24.083c-0,0 -23.862,29.298 -50.412,61.134c8.267,-1.484 15.756,-2.863 21.807,-4.055c37.351,-7.324 58.106,-21.979 58.106,-21.979c-0,0 -49.802,95.245 -70.557,128.213c-20.748,32.968 12.451,69.595 37.352,54.946c24.9,-14.654 78.854,-18.319 78.854,-18.319c0,0 16.08,23.6 41.746,34.798c12.6,-5.846 26.352,-17.973 26.352,-17.973l40.93,-0c27.292,-0 85.279,-45.161 109.153,-66.238c23.88,-21.072 57.981,-72.25 68.222,-102.36c10.228,-30.106 13.639,-60.211 37.513,-81.288c23.88,-21.067 98.918,-72.25 98.918,-72.25l501.403,-331.169l-1.133,-3.994Z" style="fill:#b57753;fill-rule:nonzero;"/><path d="M2606.13,396.799c-0,-0 -361.554,328.158 -440.01,427.507c-78.443,99.349 -242.166,228.808 -242.166,228.808c-0,0 -177.369,24.083 -197.831,24.083c-20.462,0 -78.456,24.084 -88.684,45.156c-10.234,21.077 -75.038,78.277 -105.741,87.31c-30.69,9.033 -54.57,42.149 -6.817,54.188c47.748,12.044 92.09,-15.05 115.963,-33.116c23.88,-18.061 71.634,-24.083 71.634,-24.083c-0,-0 -78.45,96.338 -109.147,129.459c-30.702,33.111 -71.633,72.25 -64.81,90.316c6.829,18.061 17.057,30.105 47.753,30.105c30.697,0 64.811,-30.105 64.811,-30.105c-0,0 40.924,27.094 68.215,21.072c27.285,-6.022 51.165,-15.05 51.165,-15.05c0,0 34.102,12.039 47.754,12.039c13.639,0 37.513,-21.072 37.513,-21.072l40.931,0c27.291,0 85.272,-45.155 109.146,-66.233c23.88,-21.072 57.988,-72.254 68.222,-102.36c10.234,-30.11 13.646,-60.21 37.519,-81.288c23.88,-21.072 98.912,-72.254 98.912,-72.254l501.403,-331.169" style="fill:none;fill-rule:nonzero;stroke:#333;stroke-width:5.56px;"/><path d="M1998.99,803.229c0,0 17.979,5.061 31.425,-22.072c13.447,-27.138 88.379,-240.814 88.379,-240.814c0,-0 -63.397,-23.748 -82.614,-25.441c-19.211,-1.698 -32.664,-1.698 -32.664,-1.698l-4.526,290.025Z" style="fill:#908389;fill-rule:nonzero;stroke:#333;stroke-width:5.56px;"/><path d="M1671.55,457.009l-0,319.581c-0,13.094 11.94,23.742 26.768,23.88c76.688,0.731 292.267,2.758 300.677,2.758c10.228,0 23.88,-304.069 17.057,-319.119c-6.829,-15.055 -122.798,-9.033 -214.894,-21.077c-92.089,-12.045 -112.558,-27.095 -129.608,-6.023Z" style="fill:#908389;fill-rule:nonzero;stroke:#333;stroke-width:5.56px;"/><path d="M1864.79,473.944c0,-0 2.036,71.969 2.036,142.136l0,172.719" style="fill:none;fill-rule:nonzero;stroke:#333;stroke-width:5.56px;"/><path d="M1883.14,776.204l-0.193,-13.736" style="fill:none;fill-rule:nonzero;stroke:#333;stroke-width:5.56px;stroke-miterlimit:4;"/><path d="M1882.54,733.138l-3.082,-219.996" style="fill:none;fill-rule:nonzero;stroke:#333;stroke-width:5.56px;stroke-miterlimit:4;stroke-dasharray:29.66,29.66;"/><path d="M1879.26,498.474l-0.193,-13.736" style="fill:none;fill-rule:nonzero;stroke:#333;stroke-width:5.56px;stroke-miterlimit:4;"/></svg>